<svg width="250" height="250" viewBox="0 0 250 250" fill="none" xmlns="http://www.w3.org/2000/svg">
<path d="M0 125C0 55.9644 55.9644 0 125 0C194.036 0 250 55.9644 250 125C250 194.036 194.036 250 125 250C55.9644 250 0 194.036 0 125Z" fill="black"/>
<path d="M186.64 115.72C186.64 121.48 185.2 126.76 182.32 131.56C179.6 136.36 175.84 140.2 171.04 143.08C166.24 145.96 160.88 147.4 154.96 147.4H110.8C108.88 147.4 107.92 148.44 107.92 150.52V199.96C107.92 203 106.8 205.64 104.56 207.88C102.48 209.96 99.92 211 96.88 211H90.4C87.36 211 84.72 209.96 82.48 207.88C80.4 205.64 79.36 203 79.36 199.96V59.8C79.36 56.6 80.4 53.96 82.48 51.88C84.72 49.8 87.36 48.76 90.4 48.76H154.96C160.88 48.76 166.24 50.2 171.04 53.08C175.84 55.96 179.6 59.8 182.32 64.6C185.2 69.4 186.64 74.76 186.64 80.68V115.72ZM158.32 115.72V80.68C158.32 78.44 157.2 77.32 154.96 77.32H110.8C108.88 77.32 107.92 78.36 107.92 80.44V115.72C107.92 117.8 108.88 118.84 110.8 118.84H154.96C157.2 118.84 158.32 117.8 158.32 115.72Z" fill="white"/>
</svg>
